# xmcd
#
# Track frame offsets: 
#        150
#        17294
#        40150
#        74938
#        95070
#        109011
#        127695
#        148371
#        164665
#
# Disc length: 2387 seconds
#
# Revision: 2
# Processed by: cddbd v1.5.2PL0 Copyright (c) Steve Scherf et al.
# Submitted via: ExactAudioCopy v0.99pb4
#
DISCID=80095109
DTITLE=Peter Green - In the Skies
DYEAR=1979
DGENRE=Blues
TTITLE0=In the Skies
TTITLE1=Slabo Day
TTITLE2=A Fool No More
TTITLE3=Tribal Dance
TTITLE4=Seven Stars
TTITLE5=Funky Chunk
TTITLE6=Just for You
TTITLE7=Proud Pinto
TTITLE8=Apostle
EXTD=
EXTT0=
EXTT1=
EXTT2=
EXTT3=
EXTT4=
EXTT5=
EXTT6=
EXTT7=
EXTT8=
PLAYORDER=
